<svg xmlns:dc="http://purl.org/dc/elements/1.1/" xmlns:cc="http://creativecommons.org/ns#" xmlns:rdf="http://www.w3.org/1999/02/22-rdf-syntax-ns#" xmlns:svg="http://www.w3.org/2000/svg" xmlns="http://www.w3.org/2000/svg" xmlns:sodipodi="http://sodipodi.sourceforge.net/DTD/sodipodi-0.dtd" xmlns:inkscape="http://www.inkscape.org/namespaces/inkscape" version="1.1" x="0px" y="0px" viewBox="0 0 100 125"><g transform="translate(0,-952.36218)"><path style="font-size:medium;font-style:normal;font-variant:normal;font-weight:normal;font-stretch:normal;text-indent:0;text-align:start;text-decoration:none;line-height:normal;letter-spacing:normal;word-spacing:normal;text-transform:none;direction:ltr;block-progression:tb;writing-mode:lr-tb;text-anchor:start;baseline-shift:baseline;opacity:1;color:#000000;fill:#000000;fill-opacity:1;stroke:none;stroke-width:4;marker:none;visibility:visible;display:inline;overflow:visible;enable-background:accumulate;font-family:Sans;-inkscape-font-specification:Sans" d="m 50,19 c -0.942809,0 -2,1.011332 -2,2 l 0,16 -20,0 C 16.038453,37 6,46.88177 6,59 c 0,11.9971 9.038456,22 21,22 5.059606,0 9.949171,-2.1392 13.625,-5 l 18.75,0 C 63.050829,78.8608 67.940394,81 73,81 84.961544,81 94,70.9971 94,59 94,46.88177 83.961547,37 72,37 l -20,0 0,-16 c 0,-1.134814 -1.057191,-2 -2,-2 z m -22,22 44,0 c 9.753881,0 18,8.0958 18,18 C 90,69.0253 82.753884,77 73,77 68.874755,77 64.339083,74.9864 61.28125,72.4375 60.921623,72.150055 60.460327,71.992539 60,72 l -20,0 c -0.460327,-0.0075 -0.921623,0.150055 -1.28125,0.4375 C 35.660917,74.9864 31.125245,77 27,77 17.246116,77 10,69.0253 10,59 10,49.0958 18.246119,41 28,41 z m 44,8 c -1.65684,0 -3,1.3432 -3,3 0,1.6569 1.34316,3 3,3 1.65684,0 3,-1.3431 3,-3 0,-1.6568 -1.34316,-3 -3,-3 z M 27.78125,49.96875 C 26.798498,50.076745 25.978736,51.01156 26,52 l 0,5.5 -5.5,0 c -0.06245,-0.0029 -0.125046,-0.0029 -0.1875,0 -1.047341,0.04888 -1.955743,1.046438 -1.906649,2.093769 C 18.454944,60.6411 19.452679,61.549303 20.5,61.5 l 5.5,0 0,5.5 c -0.01494,1.056625 0.943269,2.028484 2,2.028484 1.056731,0 2.014943,-0.971859 2,-2.028484 l 0,-5.5 5.5,0 c 1.056625,0.01494 2.028484,-0.943269 2.028484,-2 0,-1.056731 -0.971859,-2.014943 -2.028484,-2 l -5.5,0 0,-5.5 c 0.02444,-1.13455 -1.09076,-2.155508 -2.21875,-2.03125 z M 64.5,56.5 c -1.6569,0 -3,1.3432 -3,3 0,1.6568 1.3431,3 3,3 1.6568,0 3,-1.3432 3,-3 0,-1.6568 -1.3432,-3 -3,-3 z m 15,0 c -1.6569,0 -3,1.3432 -3,3 0,1.6568 1.3431,3 3,3 1.6568,0 3,-1.3432 3,-3 0,-1.6568 -1.3432,-3 -3,-3 z M 72,64 c -1.65684,0 -3,1.3432 -3,3 0,1.6569 1.34316,3 3,3 1.65684,0 3,-1.3431 3,-3 0,-1.6568 -1.34316,-3 -3,-3 z" transform="translate(0,952.36218)"/></g></svg>